<?xml version="1.0" encoding="iso-8859-1"?>
<!-- Generator: Adobe Illustrator 19.0.0, SVG Export Plug-In . SVG Version: 6.00 Build 0)  -->
<svg xmlns="http://www.w3.org/2000/svg" xmlns:xlink="http://www.w3.org/1999/xlink" version="1.1" id="Capa_1" x="0px" y="0px" viewBox="0 0 507.995 507.995" style="enable-background:new 0 0 507.995 507.995;" xml:space="preserve" width="512px" height="512px">
<g>
	<g>
		<path d="M506.203,352.097c-2.3-4.1-6.5-6.7-11.1-7.1c-6.3-110.8-87.7-201.7-193.8-222.9c4.6-24.8-4.4-60.7-47.2-60.7    c-40.4,0-53.4,36.9-47.2,60.7c-106.3,21.2-187.6,112.2-194,222.9c-4.6,0.4-8.8,3-11.1,7.1c-2.5,4.5-2.4,9.9,0.3,14.3l45.3,73.5    c2.6,4.2,7.1,6.7,12,6.7h389.1c4.9,0,9.4-2.5,12-6.7l45.3-73.5C508.603,361.997,508.703,356.597,506.203,352.097z M254.003,89.597    c22.6,0,22,21.1,18.8,28.6c-6.2-0.5-12.5-0.8-18.8-0.8c-6.3,0-12.6,0.3-18.8,0.8C232.003,110.697,230.703,89.597,254.003,89.597z     M254.003,145.697c112.9,0,205.5,88.1,212.8,199.2h-425.6C48.503,233.797,141.103,145.697,254.003,145.697z M440.703,418.397    h-373.4l-27.9-45.3h429.2L440.703,418.397z" fill="#1dd2af"/>
	</g>
</g>
<g>
</g>
<g>
</g>
<g>
</g>
<g>
</g>
<g>
</g>
<g>
</g>
<g>
</g>
<g>
</g>
<g>
</g>
<g>
</g>
<g>
</g>
<g>
</g>
<g>
</g>
<g>
</g>
<g>
</g>
</svg>
